<?xml version="1.0" standalone="no"?>
<!DOCTYPE svg PUBLIC "-//W3C//DTD SVG 1.1//EN" "http://www.w3.org/Graphics/SVG/1.1/DTD/svg11.dtd" >
<svg xmlns="http://www.w3.org/2000/svg">
<metadata>
Created by FontForge 20120731 at Sun Mar  6 11:40:44 2016
 By Ads
</metadata>
<defs>
<font id="iconfont" horiz-adv-x="1024" >
  <font-face 
    font-family="iconfont"
    font-weight="500"
    font-stretch="normal"
    units-per-em="1024"
    panose-1="2 0 6 3 0 0 0 0 0 0"
    ascent="896"
    descent="-128"
    x-height="792"
    bbox="12.9524 -113 1017.58 896"
    underline-thickness="50"
    underline-position="-100"
    unicode-range="U+0078-E655"
  />
<missing-glyph horiz-adv-x="374" 
d="M34 0v682h272v-682h-272zM68 34h204v614h-204v-614z" />
    <glyph glyph-name=".notdef" horiz-adv-x="374" 
d="M34 0v682h272v-682h-272zM68 34h204v614h-204v-614z" />
    <glyph glyph-name=".null" horiz-adv-x="0" 
 />
    <glyph glyph-name="nonmarkingreturn" horiz-adv-x="341" 
 />
    <glyph glyph-name="x" unicode="x" horiz-adv-x="1001" 
d="M281 543q-27 -1 -53 -1h-83q-18 0 -36.5 -6t-32.5 -18.5t-23 -32t-9 -45.5v-76h912v41q0 16 -0.5 30t-0.5 18q0 13 -5 29t-17 29.5t-31.5 22.5t-49.5 9h-133v-97h-438v97zM955 310v-52q0 -23 0.5 -52t0.5 -58t-10.5 -47.5t-26 -30t-33 -16t-31.5 -4.5q-14 -1 -29.5 -0.5
t-29.5 0.5h-32l-45 128h-439l-44 -128h-29h-34q-20 0 -45 1q-25 0 -41 9.5t-25.5 23t-13.5 29.5t-4 30v167h911zM163 247q-12 0 -21 -8.5t-9 -21.5t9 -21.5t21 -8.5q13 0 22 8.5t9 21.5t-9 21.5t-22 8.5zM316 123q-8 -26 -14 -48q-5 -19 -10.5 -37t-7.5 -25t-3 -15t1 -14.5
t9.5 -10.5t21.5 -4h37h67h81h80h64h36q23 0 34 12t2 38q-5 13 -9.5 30.5t-9.5 34.5q-5 19 -11 39h-368zM336 498v228q0 11 2.5 23t10 21.5t20.5 15.5t34 6h188q31 0 51.5 -14.5t20.5 -52.5v-227h-327z" />
    <glyph glyph-name="uniE600" unicode="&#xe600;" 
d="M360 836h-173q-54 0 -92 -38t-38 -92v-173q0 -54 38 -92t92 -38h11h162h98q13 0 22.5 9.5t9.5 22.5v98v162v11q0 54 -38 92t-92 38zM57 235v-173q0 -54 38 -92t92 -38h173q54 0 92 38t38 92v11v162v98q0 13 -9.5 22.5t-22.5 9.5h-98h-162h-11q-54 0 -92 -38t-38 -92z
M664 -68h173q54 0 92 38t38 92v173q0 54 -38 92t-92 38h-11h-162h-98q-13 0 -22.5 -9.5t-9.5 -22.5v-98v-162v-11q0 -54 38 -92t92 -38zM837 785q33 0 56 -23t23 -56v-173q0 -33 -23 -56t-56 -23h-11h-162h-79v79v162v11q0 33 23 56t56 23h173zM837 836h-173q-54 0 -92 -38
t-38 -92v-11v-162v-98q0 -13 9.5 -22.5t22.5 -9.5h98h162h11q54 0 92 38t38 92v173q0 54 -38 92t-92 38z" />
    <glyph glyph-name="uniE601" unicode="&#xe601;" 
d="M906 854h-788q-6 0 -10 -4.5t-4 -10.5v-908q0 -6 4 -10.5t10 -4.5h788q6 0 10 4.5t4 10.5v908q0 6 -4 10.5t-10 4.5zM869 -33h-714v607h714v-607zM869 625h-714v178h714v-178zM222 385h86q6 0 10.5 4.5t4.5 10.5v85q0 6 -4.5 10.5t-10.5 4.5h-86q-6 0 -10 -4.5t-4 -10.5
v-85q0 -6 4 -10.5t10 -4.5zM372 385h86q6 0 10.5 4.5t4.5 10.5v85q0 6 -4.5 10.5t-10.5 4.5h-86q-6 0 -10 -4.5t-4 -10.5v-85q0 -6 4 -10.5t10 -4.5zM522 385h86q6 0 10.5 4.5t4.5 10.5v85q0 6 -4.5 10.5t-10.5 4.5h-86q-6 0 -10 -4.5t-4 -10.5v-85q0 -6 4 -10.5t10 -4.5z
M222 214h86q6 0 10.5 4.5t4.5 10.5v86q0 6 -4.5 10t-10.5 4h-86q-6 0 -10 -4t-4 -10v-86q0 -6 4 -10.5t10 -4.5zM372 214h86q6 0 10.5 4.5t4.5 10.5v86q0 6 -4.5 10t-10.5 4h-86q-6 0 -10 -4t-4 -10v-86q0 -6 4 -10.5t10 -4.5zM522 214h86q6 0 10.5 4.5t4.5 10.5v86
q0 6 -4.5 10t-10.5 4h-86q-6 0 -10 -4t-4 -10v-86q0 -6 4 -10.5t10 -4.5zM222 43h86q6 0 10.5 4.5t4.5 10.5v86q0 6 -4.5 10t-10.5 4h-86q-6 0 -10 -4t-4 -10v-86q0 -6 4 -10.5t10 -4.5zM372 43h86q6 0 10.5 4.5t4.5 10.5v86q0 6 -4.5 10t-10.5 4h-86q-6 0 -10 -4t-4 -10
v-86q0 -6 4 -10.5t10 -4.5zM522 43h86q6 0 10.5 4.5t4.5 10.5v86q0 6 -4.5 10t-10.5 4h-86q-6 0 -10 -4t-4 -10v-86q0 -6 4 -10.5t10 -4.5zM675 213h123q8 0 14.5 10.5t6.5 25.5v212q0 15 -6.5 25.5t-14.5 10.5h-123q-8 0 -14 -10.5t-6 -25.5v-212q0 -15 6 -25.5t14 -10.5z
M675 43h123q8 0 14 4.5t6 10.5v86q0 6 -6 10t-14 4h-123q-8 0 -14 -4t-6 -10v-86q0 -6 6 -10.5t14 -4.5z" />
    <glyph glyph-name="uniE602" unicode="&#xe602;" 
d="M505 236v-1q-1 -32 -53.5 -54.5t-126.5 -22.5t-126.5 22.5t-53.5 54.5q-1 0 -1 1v-83q0 -1 1 -1q1 -32 53.5 -54.5t126.5 -22.5t126.5 22.5t53.5 54.5v1v0v1v82zM505 358q-1 -32 -53.5 -55t-126.5 -23t-126.5 22.5t-53.5 54.5l-1 1v-82q0 -1 1 -1q1 -33 53.5 -55
t126.5 -22t126.5 22.5t53.5 54.5v1v0v1v81zM505 481q-1 -32 -53.5 -55t-126.5 -23t-126.5 22.5t-53.5 54.5l-1 1v-83l1 -1q1 -32 53.5 -54.5t126.5 -22.5t126.5 23t53.5 55v1v1v81zM505 604q-1 -32 -53.5 -55t-126.5 -23t-126.5 22.5t-53.5 54.5l-1 1v-83l1 -1
q1 -32 53.5 -54.5t126.5 -22.5t126.5 23t53.5 55v1v0v82zM325 570q74 0 126.5 22.5t53.5 54.5v1v0v1v59v0q0 33 -52.5 56t-127.5 23t-128 -23t-53 -56v0v-60q0 -1 1 -1q1 -33 53.5 -55t126.5 -22zM880 236l-1 -1q-1 -32 -53.5 -54.5t-126.5 -22.5q-73 0 -125.5 22.5
t-54.5 54.5v1v-83v-1q2 -32 54.5 -54.5t125.5 -22.5q74 0 126.5 22.5t53.5 54.5l1 1v0v1v82zM880 358h-1q-1 -32 -53.5 -55t-126.5 -23q-73 0 -125.5 22.5t-54.5 54.5v1v-82v-1q2 -33 54.5 -55t125.5 -22q74 0 126.5 22.5t53.5 54.5l1 1v0v1v81zM699 325q74 0 126.5 22.5
t53.5 54.5v1v1v59v1q0 32 -52.5 55t-127.5 23t-127.5 -23t-52.5 -55v-1v-60v-1q1 -32 53.5 -54.5t126.5 -22.5zM969 310h-34q-15 0 -15 -7v-259h-816v252q0 6 -15 6h-34q-15 0 -15 -6v-301q0 -6 7 -10t16 -4h898q9 0 16 4t7 10v308q0 7 -15 7z" />
    <glyph glyph-name="uniE603" unicode="&#xe603;" 
d="M244 548h536q5 0 9 4.5t4 10.5v43q0 6 -4 10.5t-9 4.5h-536q-5 0 -9 -4.5t-4 -10.5v-43q0 -6 4 -10.5t9 -4.5zM252 443q-5 0 -9 -4t-4 -10v-44q0 -6 4 -10t9 -4h536q5 0 9 4t4 10v44q0 6 -4 10t-9 4h-536zM920 185v654q0 6 -4 10t-10 4h-788q-6 0 -10 -4t-4 -10v-909
q0 -6 4 -10.5t10 -4.5h531h5h1q1 1 3 2l260 261q3 3 2 7zM676 23v145h146zM869 228h-238h-4q-11 -1 -11 -11v-251h-461v836h714v-574z" />
    <glyph glyph-name="uniE604" unicode="&#xe604;" 
d="M433 378q-54 59 -54 139q0 69 40.5 123.5t103.5 75.5q-11 55 -55 91t-101 36q-66 0 -113 -47t-47 -113q0 -57 36.5 -101t91.5 -55q-123 -11 -211 -99t-100 -212q95 -15 196 -21q36 63 91 110t122 73zM792 239q0 6 5 10.5t13 4.5h28q-89 95 -218 106q55 11 91.5 55
t36.5 102q0 66 -46.5 112.5t-113 46.5t-113 -46.5t-46.5 -112.5q0 -58 36 -102t92 -55q-124 -11 -212 -99t-100 -211q164 -26 343 -26q47 0 93 2q-3 5 -3 11v84q0 7 4.5 12.5t10.5 5.5h99v100zM982 112h-97v97q0 13 -10 13h-47q-9 0 -9 -13v-97h-97q-13 0 -13 -10v-47
q0 -9 13 -9h97v-97q0 -13 9 -13h47q10 0 10 13v97h97q13 0 13 9v47q0 10 -13 10z" />
    <glyph glyph-name="uniE605" unicode="&#xe605;" 
d="M910 855h-796q-10 0 -16.5 -4.5t-6.5 -10.5v-581q0 -6 6.5 -10t16.5 -4h155q10 -6 32 -18.5t29 -16.5t22 -14t20 -15.5t12.5 -15.5t9.5 -19.5t2 -21.5q0 -20 -6.5 -45t-17.5 -41h-118q-6 0 -10 -4t-4 -10l-82 -96q0 -6 4 -10.5t10 -4.5h680q6 0 10 4.5t4 10.5l-82 96
q0 6 -4 10t-10 4h-118q-11 16 -17.5 41t-6.5 45q0 12 2 21.5t9.5 19.5t12.5 15.5t20 15.5t22 14t29 16.5t32 18.5h155q10 0 16.5 4t6.5 10v581q0 6 -6.5 10.5t-16.5 4.5zM870 308h-716v483h716v-483zM185 508l48 4q4 -24 17.5 -35t35.5 -11q24 0 36 10t12 23q0 9 -5 15
t-18 11q-8 3 -39 10q-40 10 -56 24q-22 21 -22 50q0 18 10.5 34.5t30.5 25t48 8.5q46 0 69 -20.5t25 -53.5l-50 -2q-3 18 -13.5 26.5t-31.5 8.5t-33 -9q-8 -6 -8 -15t7 -15q9 -8 45.5 -16.5t53.5 -17.5t27 -24.5t10 -39.5q0 -21 -12 -39t-33 -27t-53 -9q-47 0 -71.5 21.5
t-29.5 62.5zM489 428v103l-89 142h58l57 -97l57 97h56l-89 -142v-103h-50zM640 508l48 4q5 -24 18 -35t36 -11q24 0 36 10t12 23q0 9 -5 15t-18 11q-9 3 -40 10q-39 10 -55 24q-23 21 -23 50q0 18 10.5 34.5t30.5 25t48 8.5q47 0 70 -20.5t24 -53.5l-49 -2q-3 18 -13.5 26.5
t-31.5 8.5q-22 0 -34 -9q-8 -6 -8 -15t8 -15q9 -8 45 -16.5t53.5 -17.5t27 -24.5t9.5 -39.5q0 -21 -11.5 -39t-33 -27t-53.5 -9q-46 0 -71 21.5t-30 62.5z" />
    <glyph glyph-name="uniE606" unicode="&#xe606;" 
d="M16 603l224 -389v535l-219 -127q-13 -7 -5 -19zM337 803q-6 0 -10 -4t-4 -10v-453l270 467h-256zM1010 622l-305 176q-12 7 -20 -5l-374 -648q-7 -12 6 -19l39 -23l75 130q7 12 18 5l205 -118q11 -7 4 -18l-75 -130l38 -22q13 -7 20 5l374 648q7 12 -5 19zM792 337
l-87 -151q-6 -11 -18 -5l-204 118q-12 7 -5 19l87 150q7 12 18 5l204 -118q12 -7 5 -18zM931 574l-87 -150q-7 -12 -18 -5l-204 118q-12 6 -5 18l87 151q6 11 18 4l204 -118q12 -6 5 -18z" />
    <glyph glyph-name="uniE607" unicode="&#xe607;" 
d="M515 177q-15 -2 -25 9l-353 353q-9 9 -9 21.5t9 21.5t21.5 9t21.5 -9l332 -332l332 332q9 9 21.5 9t21.5 -9t9 -21.5t-9 -21.5l-353 -353q-8 -8 -19 -9z" />
    <glyph glyph-name="uniE608" unicode="&#xe608;" 
d="M305 381q-2 15 9 25l353 353q9 9 21.5 9t21.5 -9t9 -21.5t-9 -21.5l-332 -332l332 -332q9 -9 9 -21.5t-9 -21.5t-21.5 -9t-21.5 9l-353 353q-8 8 -9 19z" />
    <glyph glyph-name="uniE609" unicode="&#xe609;" 
d="M719 381q2 15 -9 25l-353 353q-9 9 -21.5 9t-21.5 -9t-9 -21.5t9 -21.5l332 -332l-332 -332q-9 -9 -9 -21.5t9 -21.5t21.5 -9t21.5 9l353 353q8 8 9 19z" />
    <glyph glyph-name="uniE60A" unicode="&#xe60a;" 
d="M515 591q-15 2 -25 -9l-353 -353q-9 -9 -9 -21.5t9 -21.5t21.5 -9t21.5 9l332 332l332 -332q9 -9 21.5 -9t21.5 9t9 21.5t-9 21.5l-353 353q-8 8 -19 9z" />
    <glyph glyph-name="uniE60B" unicode="&#xe60b;" 
d="M885 605l-17 18q-6 6 -14.5 6t-14.5 -6l-399 -399l-255 254q-6 6 -14.5 6t-14.5 -6l-17 -17q-6 -6 -6 -14.5t6 -14.5l269 -269l17 -18q6 -6 14.5 -6t14.5 6l18 18l413 413q6 6 6 14.5t-6 14.5z" />
    <glyph glyph-name="uniE60C" unicode="&#xe60c;" 
d="M573 743v-298h298q-19 113 -102 196t-196 102zM937 414q-5 71 -32 135t-72 115h-1v1q-3 4 -6 6q0 1 -1 1.5t-1 1.5l-4 4l-6 6l-1 1l-1 1q-3 4 -6 6l-4 4q-1 0 -1.5 1t-1.5 1q-2 3 -6 6h-1v1q-51 45 -115 72q-70 29 -143 33l-23 1v-428h366h61h1zM573 445v298
q113 -19 196 -102t102 -196h-298zM511 18q-99 0 -183 49t-133 133t-49 183q0 134 86 235.5t215 124.5v62q-52 -8 -102 -28q-76 -33 -135 -92t-92 -136q-33 -79 -33 -165.5t33 -166.5q33 -76 92 -135t135 -92q80 -33 166.5 -33t165.5 33q77 33 136 92t92 135q21 51 29 105
h-63q-22 -130 -123.5 -217t-236.5 -87z" />
    <glyph glyph-name="uniE60D" unicode="&#xe60d;" 
d="M988 -14q-8 78 -42 148q-32 69 -85 124t-121 90q-46 23 -95 36q49 26 82 70q52 68 52 153q0 105 -73.5 178.5t-178 73.5t-178 -73.5t-73.5 -178.5q0 -85 52 -153q33 -44 82 -70q-49 -13 -95 -36q-68 -35 -121 -90t-85 -124q-34 -70 -42 -148l-1 -7l5 -6q15 -14 30 -27
l24 -21l1 32q4 71 31 135q31 73 86.5 128.5t127.5 85.5q39 17 80 25l36 -46l-66 -257l107 -70l106 70l-66 257l36 46q41 -8 80 -25q72 -30 127.5 -85.5t86.5 -128.5q27 -64 31 -135l1 -32l24 21q15 13 30 27l5 6zM393 742q56 56 134.5 56t134.5 -56t56 -135t-56 -134.5
t-134.5 -55.5t-134.5 55.5t-56 134.5t56 135z" />
    <glyph glyph-name="uniE60E" unicode="&#xe60e;" 
d="M768 806h-91h-24h-60h-81h-88h-80h-58q-24 0 -23 0q-34 0 -58.5 -24.5t-24.5 -58.5v-299v-379q0 -34 24.5 -58.5t58.5 -24.5h399q78 0 133.5 55.5t55.5 132.5v573q0 34 -24.5 58.5t-58.5 24.5zM754 188q0 -5 -3.5 -8.5t-7.5 -3.5h-455q-4 0 -7.5 3.5t-3.5 8.5v47
q0 5 3.5 8.5t7.5 3.5h455q4 0 7.5 -3.5t3.5 -8.5v-47zM754 380q0 -5 -3.5 -8.5t-7.5 -3.5h-455q-4 0 -7.5 3.5t-3.5 8.5v48q0 4 3.5 7.5t7.5 3.5h455q4 0 7.5 -3.5t3.5 -7.5v-48zM754 572q0 -5 -3.5 -8.5t-7.5 -3.5h-455q-4 0 -7.5 3.5t-3.5 8.5v48q0 4 3.5 7.5t7.5 3.5h455
q4 0 7.5 -3.5t3.5 -7.5v-48z" />
    <glyph glyph-name="uniE60F" unicode="&#xe60f;" 
d="M933 186h-40q-9 0 -11 -8q-15 -59 -59 -103q-65 -66 -158 -66t-159 66q-43 43 -58 101h102q7 0 9.5 6t-1.5 11l-136 160q-8 9 -16 0l-136 -160q-5 -5 -2 -11t9 -6h108v-3q21 -97 99.5 -161t180.5 -64t180 64t99 161q1 5 -2 9t-9 4zM337 9h-189q-7 0 -7 7v736q0 7 7 7h551
q7 0 7 -7v-554q0 -7 6 -7h48q7 0 7 7v603q0 8 -5.5 13.5t-13.5 5.5h-649q-8 0 -13.5 -5.5t-5.5 -13.5v-834q0 -8 5.5 -13.5t13.5 -5.5h238q7 0 7 7v47q0 7 -7 7zM628 624q0 2 -2 2h-405q-2 0 -2 -2v-57q0 -2 2 -2h405q2 0 2 2v57zM626 487h-405q-2 0 -2 -2v-58q0 -1 2 -1
h405q2 0 2 1v58q0 2 -2 2z" />
    <glyph glyph-name="uniE610" unicode="&#xe610;" 
d="M904 353h-784q-6 0 -6 7v48q0 7 6 7h784q6 0 6 -7v-48q0 -7 -6 -7zM481 -8v784q0 6 7 6h48q7 0 7 -6v-784q0 -6 -7 -6h-48q-7 0 -7 6z" />
    <glyph glyph-name="uniE611" unicode="&#xe611;" 
d="M112 104l400 560l400 -560h-800z" />
    <glyph glyph-name="uniE612" unicode="&#xe612;" 
d="M749 -16l-560 400l560 400v-800z" />
    <glyph glyph-name="uniE613" unicode="&#xe613;" 
d="M912 643l-400 -560l-400 560h800z" />
    <glyph glyph-name="uniE614" unicode="&#xe614;" 
d="M253 784l560 -400l-560 -400v800z" />
    <glyph glyph-name="uniE615" unicode="&#xe615;" 
d="M946 371l-394 394q0 1 -2 3l-32 32q-2 2 -6 2t-6 -2l-32 -32q-2 -2 -2 -3l-394 -394q-5 -5 0 -11l33 -32q5 -6 11 0l45 45v-399q0 -8 8 -8h8h37h584h15h30q8 0 8 8v399l45 -45q6 -6 11 0l33 32q5 6 0 11zM576 27h-126v106q0 26 18.5 44.5t44.5 18.5t44.5 -18.5
t18.5 -44.5v-106zM796 27h-158v106q0 51 -36.5 88t-88.5 37q-51 0 -87.5 -37t-36.5 -88v-106h-161v407l284 284l284 -284v-407z" />
    <glyph glyph-name="uniE616" unicode="&#xe616;" 
d="M506.5 790q-107.5 0 -198.5 -46t-144 -125t-53 -172q0 -122 87 -215.5t221 -119.5q-48 -119 -96 -142q-8 -4 -3 -4q29 2 109 40q94 44 165 106q133 26 220 119.5t87 215.5q0 93 -52.5 172t-143.5 125t-198.5 46zM270 380q-25 0 -42.5 17.5t-17.5 42.5t17.5 42.5
t42.5 17.5t42.5 -17.5t17.5 -42.5t-17.5 -42.5t-42.5 -17.5zM506 380q-25 0 -42.5 17.5t-17.5 42.5t17.5 42.5t42.5 17.5t42.5 -17.5t17.5 -42.5t-17.5 -42.5t-42.5 -17.5zM742.5 380q-24.5 0 -42 17.5t-17.5 42.5t17.5 42.5t42 17.5t42 -17.5t17.5 -42.5t-17.5 -42.5
t-42 -17.5z" />
    <glyph glyph-name="uniE617" unicode="&#xe617;" 
d="M522 809q-108 0 -199 -46t-143.5 -125t-52.5 -173q0 -121 87 -214.5t220 -120.5q-47 -119 -96 -142q-7 -3 -3 -3q11 0 51 14t105.5 50t117.5 82q134 26 221 119.5t87 214.5q0 94 -53 173t-144 125t-198 46zM498 124l21 53l-73 14q-56 11 -105 37q-47 26 -82 63
q-34 37 -52 81q-19 45 -19 93q0 77 44.5 142t121.5 102.5t167.5 37.5t167.5 -37.5t121.5 -102.5t44.5 -142q0 -48 -18 -93q-18 -44 -53 -81t-82 -63q-48 -26 -104 -37l-17 -3l-12 -11q-32 -28 -71 -53zM285 518q-24 0 -42 -17.5t-18 -42.5t18 -42.5t42.5 -17.5t42 17.5
t17.5 42.5t-17.5 42.5t-42.5 17.5zM522 518q-25 0 -42.5 -17.5t-17.5 -42.5t17.5 -42.5t42.5 -17.5t42.5 17.5t17.5 42.5t-17.5 42.5t-42.5 17.5zM758 518q-25 0 -42.5 -17.5t-17.5 -42.5t17.5 -42.5t42.5 -17.5t42.5 17.5t17.5 42.5t-17.5 42.5t-42.5 17.5z" />
    <glyph glyph-name="uniE618" unicode="&#xe618;" 
d="M725 713v-75q16 -12 30 -26q47 -48 73 -109q27 -64 27 -134t-27 -133q-26 -62 -73.5 -109.5t-108.5 -73.5q-64 -27 -134 -27t-134 27q-61 26 -108.5 73.5t-73.5 109.5q-27 63 -27 133t27 134q26 61 73 109q14 14 30 26v75q-84 -52 -135 -137.5t-56 -187.5q-4 -86 28 -166
t88.5 -137t135.5 -90t166 -30q107 4 196.5 58.5t141.5 146.5t52 199t-51.5 198t-139.5 146zM494 291h36q5 0 9 3.5t4 8.5v488q0 5 -4 8.5t-9 3.5h-36q-5 0 -9 -3.5t-4 -8.5v-488q0 -5 4 -8.5t9 -3.5z" />
    <glyph glyph-name="uniE619" unicode="&#xe619;" 
d="M954 392l-205 205q-45 50 -106.5 78t-130.5 28t-130.5 -28t-106.5 -78l-205 -205q-8 -8 0 -16l205 -205q45 -50 106.5 -78t130.5 -28t130.5 28t106.5 78l205 205q8 8 0 16zM512 384zM281 384q0 96 67.5 163.5t163.5 67.5t163.5 -67.5t67.5 -163.5t-67.5 -163.5
t-163.5 -67.5t-163.5 67.5t-67.5 163.5z" />
    <glyph glyph-name="uniE61A" unicode="&#xe61a;" 
d="M555 384l305 305q9 8 0 17l-26 26q-9 9 -17 0l-305 -305l-305 305q-8 9 -17 0l-26 -26q-9 -9 0 -17l305 -305l-305 -305q-9 -8 0 -17l26 -26q9 -9 17 0l305 305l305 -305q8 -9 17 0l26 26q9 9 0 17z" />
    <glyph glyph-name="uniE61B" unicode="&#xe61b;" 
d="M812 262l159 186h-131q-24 142 -134.5 237t-256.5 95q-108 0 -199 -53t-144 -144t-53 -199t53 -199t144 -144t199 -53q95 0 178 42.5t138 115.5l-54 30q-12 -15 -26 -29q-46 -46 -106 -71q-62 -27 -130 -27t-130 27q-60 25 -106.5 71.5t-72.5 106.5q-26 62 -26 130
t26 130q26 60 72.5 106.5t106.5 71.5q62 27 130 27t130 -27q60 -25 106.5 -71.5t71.5 -106.5q14 -32 20 -66h-124z" />
    <glyph glyph-name="uniE61C" unicode="&#xe61c;" 
d="M890 749h-425q-5 0 -8.5 -4t-3.5 -9v-36q0 -6 3.5 -9.5t8.5 -3.5h425q5 0 9 3.5t4 9.5v36q0 5 -4 9t-9 4zM890 415h-756q-5 0 -9 -4t-4 -9v-36q0 -5 4 -9t9 -4h756q5 0 9 4t4 9v36q0 5 -4 9t-9 4zM890 248h-756q-5 0 -9 -3.5t-4 -9.5v-36q0 -5 4 -9t9 -4h756q5 0 9 4t4 9
v36q0 6 -4 9.5t-9 3.5zM890 81h-756q-5 0 -9 -3.5t-4 -9.5v-36q0 -5 4 -9t9 -4h756q5 0 9 4t4 9v36q0 6 -4 9.5t-9 3.5zM890 582h-425q-5 0 -8.5 -4t-3.5 -9v-36q0 -6 3.5 -9.5t8.5 -3.5h425q5 0 9 3.5t4 9.5v36q0 5 -4 9t-9 4zM135 520h218q5 0 8.5 3.5t3.5 9.5v203
q0 5 -3.5 9t-8.5 4h-218q-5 0 -8.5 -4t-3.5 -9v-203q0 -6 3.5 -9.5t8.5 -3.5z" />
    <glyph glyph-name="uniE61D" unicode="&#xe61d;" 
d="M679 193l-71 -71l-60 -60l-23 -23q-5 -5 -13 -5t-13 5l-154 154q-96 -15 -154.5 -45.5t-58.5 -66.5q0 -34 51 -63t138.5 -46t190.5 -17t190.5 17t138.5 46t51 63q0 36 -58.5 66.5t-154.5 45.5zM502 153q10 -10 20 0q200 201 201 201q67 78 67 181q0 115 -81.5 196.5
t-196.5 81.5t-196.5 -81.5t-81.5 -196.5q0 -103 67 -181l51 -50l100 -101zM512 662q49 0 84 -35t35 -84.5t-35 -84.5t-84 -35t-84 35t-35 84.5t35 84.5t84 35z" />
    <glyph glyph-name="uniE61E" unicode="&#xe61e;" 
d="M512 721q55 0 106 -21q49 -21 86.5 -58.5t58.5 -86.5q21 -50 21 -106q0 -50 -17 -96q-17 -44 -47 -80l-208 -208l-208 208q-30 36 -47 80q-17 46 -17 96q0 56 21 106q21 49 58.5 86.5t86.5 58.5q51 21 106 21zM512 783q-91 0 -167.5 -44.5t-121.5 -121.5t-45 -168
q0 -123 81 -217l61 -60l120 -122l60 -60q5 -5 12 -5t12 5q241 241 241 242q81 94 81 217q0 91 -45 168t-121.5 121.5t-167.5 44.5zM512 540q34 0 58 -24t24 -58t-24 -58t-58 -24t-58 24t-24 58t24 58t58 24zM512 601q-59 0 -101 -42t-42 -101t42 -101t101 -42t101 42t42 101
t-42 101t-101 42z" />
    <glyph glyph-name="uniE61F" unicode="&#xe61f;" 
d="M512 764q-103 0 -190.5 -51t-138.5 -138.5t-51 -190.5q0 -87 38 -165l33 87q-10 38 -10 78q0 65 25 124q25 57 69 101t101 69q59 25 124 25t124 -25q57 -25 101 -69t69 -101q25 -59 25 -124t-25 -124q-20 -47 -54 -85l-198 483h-77l-209 -544l-6 -16q107 -94 250 -94
q103 0 190.5 51t138.5 138.5t51 190.5t-51 190.5t-138.5 138.5t-190.5 51zM485 497q18 52 29 104q12 -44 38 -113l57 -151h-184zM512 65q-65 0 -124 25q-23 10 -45 24h1l60 165h227l61 -158q-26 -18 -56 -31q-59 -25 -124 -25z" />
    <glyph glyph-name="uniE620" unicode="&#xe620;" 
d="M218 508q25 57 69 101t101 69q59 25 124 25t124 -25q57 -25 101 -69q18 -18 33 -38h-360q-5 0 -8.5 -4t-3.5 -9v-37q0 -5 3.5 -8.5t8.5 -3.5h426q5 0 8.5 3.5t3.5 8.5v37q0 5 -3 9q-49 89 -138 143t-195 54q-99 0 -184.5 -47.5t-137.5 -129.5t-57 -181h61q4 53 24 102z
M830 362q-4 -53 -24 -102q-25 -57 -69 -101t-101 -69q-59 -25 -124 -25t-124 25q-57 25 -101 69q-18 17 -32 37h359q5 0 8.5 4t3.5 9v36q0 6 -3.5 9.5t-8.5 3.5h-426q-5 0 -8.5 -3.5t-3.5 -9.5v-36q0 -6 4 -9q49 -89 137.5 -142.5t194.5 -53.5q99 0 184.5 47.5t137.5 129.5
t57 181h-61z" />
    <glyph glyph-name="uniE621" unicode="&#xe621;" 
d="M649 791h-490q-5 0 -9 -3.5t-4 -8.5v-583q0 -5 4 -8.5t9 -3.5h204v61h-155v485h392v-146h-1v-61h62v61v195q0 5 -3.5 8.5t-8.5 3.5zM424 58h-61v-23v-58h26h21h41v61h-27v20zM363 160h61v-61h-61v61zM492 38h61v-61h-61v61zM594 38h61v-61h-61v61zM497 584h61v-61h-61v61
zM363 263h61v-62h-61v62zM363 467h61v-61h-61v61zM363 365h61v-61h-61v61zM816 271h62v-61h-62v61zM816 38h-17v-61h36h25h18v28v27v35h-62v-29zM816 169h62v-61h-62v61zM816 476h62v-61h-62v61zM816 374h62v-62h-62v62zM702 584h61v-61h-61v61zM696 38h62v-61h-62v61z
M402 585h-39v-15v-25v-37h61v15h32v61h-54v1zM818 585v-1h-14v-61h12v-6h62v14v41v13h-60z" />
    <glyph glyph-name="uniE622" unicode="&#xe622;" 
d="M817 762h-610q-6 0 -9.5 -3.5t-3.5 -8.5v-732q0 -5 3.5 -8.5t9.5 -3.5h610q6 0 9.5 3.5t3.5 8.5v732q0 5 -3.5 8.5t-9.5 3.5zM768 67h-512v634h512v-634zM312 305h61v-61h-61v61zM446 622h61v-61h-61v61zM419 146v61h-62h-41h-4v-4v-57h61h46zM312 408h61v-62h-61v62z
M373 561h32v61h-39h-54v-10v-61h61v10zM312 510h61v-61h-61v61zM651 364h61v-61h-61v61zM712 622h-61v-61v-53h61v114zM460 207h61v-61h-61v61zM651 146h13h48v116h-61v-42h-1v-66h1v-8zM651 467h61v-62h-61v62zM548 622h62v-61h-62v61zM562 207h61v-61h-61v61z" />
    <glyph glyph-name="uniE623" unicode="&#xe623;" 
d="M883 568h-426v100q0 9 -8 9q-4 0 -6 -2l-312 -285q-6 -6 0 -12l312 -285q2 -2 6 -2q8 0 8 9v100h1v62h-1h-61v-42l-180 164l180 164v-42h61h377v-244h-270v-62h319q5 0 8.5 3.5t3.5 8.5v344q0 5 -3.5 8.5t-8.5 3.5z" />
    <glyph glyph-name="uniE624" unicode="&#xe624;" 
d="M141 568h426v100q0 9 8 9q4 0 6 -2l312 -285q6 -6 0 -12l-312 -285q-2 -2 -6 -2q-8 0 -8 9v100h-1v62h1h61v-42l180 164l-180 164v-42h-61h-377v-244h270v-62h-319q-5 0 -8.5 3.5t-3.5 8.5v344q0 5 3.5 8.5t8.5 3.5z" />
    <glyph glyph-name="uniE625" unicode="&#xe625;" 
d="M870 355v58q0 21 13 37.5t33 22.5q-16 72 -56 134q-17 -10 -38 -7.5t-36 17.5l-41 41q-15 15 -17.5 36t7.5 38q-62 40 -134 56q-6 -20 -22.5 -33t-37.5 -13h-58q-21 0 -37.5 13t-22.5 33q-72 -16 -134 -56q10 -17 7.5 -38t-17.5 -36l-41 -41q-15 -15 -36 -17.5t-38 7.5
q-40 -62 -56 -134q20 -6 33 -22.5t13 -37.5v-58q0 -21 -13 -37.5t-33 -22.5q16 -72 56 -134q17 10 38 7.5t36 -17.5l41 -41q15 -15 17.5 -36t-7.5 -38q62 -40 134 -56q6 20 22.5 33t37.5 13h58q21 0 37.5 -13t22.5 -33q72 16 134 56q-10 17 -7.5 38t17.5 36l41 41
q15 15 36 17.5t38 -7.5q40 62 56 134q-20 6 -33 22.5t-13 37.5zM512 168q-89 0 -152.5 63.5t-63.5 152.5t63.5 152.5t152.5 63.5t152.5 -63.5t63.5 -152.5t-63.5 -152.5t-152.5 -63.5zM512 384zM367 384q0 60 42.5 102.5t102.5 42.5t102.5 -42.5t42.5 -102.5t-42.5 -102.5
t-102.5 -42.5t-102.5 42.5t-42.5 102.5z" />
    <glyph glyph-name="uniE626" unicode="&#xe626;" 
d="M627 717q20 -7 39 -16q0 -8 1 -15q5 -42 35 -72l40 -40q18 -18 41 -27q22 -9 46 -9q9 -19 16 -39q-6 -5 -10 -11q-26 -33 -26 -75v-58q0 -42 26 -75q4 -6 10 -11q-7 -20 -16 -39q-24 0 -46 -9q-23 -9 -41 -27l-40 -40q-30 -30 -35 -72q-1 -7 -1 -15q-19 -9 -39 -16
q-5 6 -11 10q-33 26 -75 26h-58q-42 0 -75 -26q-6 -4 -11 -10q-20 7 -39 16q0 8 -1 15q-5 42 -35 72l-40 40q-18 18 -41 27q-22 9 -46 9q-9 19 -16 39q6 5 10 11q26 33 26 75v58q0 42 -26 75q-4 6 -10 11q7 20 16 39q24 0 46 9q23 9 41 27l40 40q30 30 35 72q1 7 1 15
q19 9 39 16q5 -6 11 -10q33 -26 75 -26h58q42 0 75 26q6 4 11 10zM601 788q-6 -20 -22.5 -33t-37.5 -13h-58q-21 0 -37.5 13t-22.5 33q-72 -16 -134 -56q10 -17 7.5 -38t-17.5 -36l-41 -41q-18 -18 -44 -18q-16 0 -30 8q-40 -62 -56 -134q20 -6 33 -22.5t13 -37.5v-58
q0 -21 -13 -37.5t-33 -22.5q16 -72 56 -134q14 8 30 8q26 0 44 -18l41 -41q15 -15 17.5 -36t-7.5 -38q62 -40 134 -56q6 20 22.5 33t37.5 13h58q21 0 37.5 -13t22.5 -33q72 16 134 56q-10 17 -7.5 38t17.5 36l41 41q18 18 44 18q16 0 30 -8q40 62 56 134q-20 6 -33 22.5
t-13 37.5v58q0 21 13 37.5t33 22.5q-16 72 -56 134q-14 -8 -30 -8q-26 0 -44 18l-41 41q-15 15 -17.5 36t7.5 38q-62 40 -134 56zM512 538q64 0 109 -45t45 -109t-45 -109t-109 -45t-109 45t-45 109t45 109t109 45zM512 600q-89 0 -152.5 -63.5t-63.5 -152.5t63.5 -152.5
t152.5 -63.5t152.5 63.5t63.5 152.5t-63.5 152.5t-152.5 63.5z" />
    <glyph glyph-name="uniE627" unicode="&#xe627;" 
d="M973 -22q-9 78 -42 148q-33 69 -86 124t-120 90q-46 23 -96 36q49 26 83 70q52 67 52 153q0 104 -74 178t-178 74t-178 -74t-74 -178q0 -86 52 -153q34 -44 83 -70q-50 -13 -96 -36q-67 -35 -120 -90t-86 -124q-33 -70 -42 -148v-8l5 -5q14 -14 29 -27l24 -21v6v4
q0 109 54 202t147 147t202.5 54t202 -54t146.5 -147t54 -202v-10l24 21q15 13 29 27l5 5v8zM512 408q-79 0 -134.5 56t-55.5 135t55.5 134.5t134.5 55.5t134.5 -55.5t55.5 -134.5t-55.5 -135t-134.5 -56z" />
    <glyph glyph-name="uniE628" unicode="&#xe628;" 
d="M543 626h-421q-5 0 -8.5 -3.5t-3.5 -8.5v-42q0 -5 3.5 -8.5t8.5 -3.5h421q5 0 8.5 3.5t3.5 8.5v42q0 5 -3.5 8.5t-8.5 3.5zM543 242h-421q-5 0 -8.5 -3.5t-3.5 -9.5v-41q0 -6 3.5 -9.5t8.5 -3.5h421q5 0 8.5 3.5t3.5 9.5v41q0 6 -3.5 9.5t-8.5 3.5zM902 331h-111v111
q0 5 -3.5 8.5t-8.5 3.5h-42q-5 0 -8.5 -3.5t-3.5 -8.5v-111h-111q-5 0 -8.5 -3.5t-3.5 -8.5v-42q0 -5 3.5 -8.5t8.5 -3.5h111v-111q0 -5 3.5 -8.5t8.5 -3.5h42q5 0 8.5 3.5t3.5 8.5v111h111q5 0 8.5 3.5t3.5 8.5v42q0 5 -3.5 8.5t-8.5 3.5zM543 434h-421q-5 0 -8.5 -3.5
t-3.5 -8.5v-42q0 -5 3.5 -8.5t8.5 -3.5h421q5 0 8.5 3.5t3.5 8.5v42q0 5 -3.5 8.5t-8.5 3.5z" />
    <glyph glyph-name="uniE629" unicode="&#xe629;" 
d="M890 116l-337 583q-14 24 -41 24t-41 -24l-337 -583q-13 -23 0.5 -47t40.5 -24h674q27 0 40.5 24t0.5 47zM512 121q-17 0 -28.5 12t-11.5 28.5t11.5 28t28.5 11.5t28.5 -11.5t11.5 -28t-11.5 -28.5t-28.5 -12zM545 319l-22 -72q-2 -7 -11 -7t-11 7l-22 72q-8 27 -12 71.5
t-3 89t13.5 76.5t34.5 32q29 0 40.5 -53.5t7.5 -115.5t-15 -100z" />
    <glyph glyph-name="uniE62A" unicode="&#xe62a;" 
d="M512 748q-99 0 -182.5 -49t-132.5 -132.5t-49 -182.5t49 -182.5t132.5 -132.5t182.5 -49t182.5 49t132.5 132.5t49 182.5t-49 182.5t-132.5 132.5t-182.5 49zM512 151q-17 0 -28.5 11.5t-11.5 28t11.5 28.5t28.5 12t28.5 -12t11.5 -28.5t-11.5 -28t-28.5 -11.5zM545 349
l-22 -72q-2 -7 -11 -7t-11 7l-22 72q-11 38 -15 100t7.5 115t40.5 53t40.5 -53t7.5 -115t-15 -100z" />
    <glyph glyph-name="uniE62B" unicode="&#xe62b;" 
d="M503.5 674q61.5 0 117.5 -24q55 -23 96.5 -64.5t64.5 -96.5q24 -56 24 -117.5t-24 -117.5q-23 -54 -64.5 -96t-96.5 -65q-56 -23 -117.5 -23t-117.5 23q-54 23 -96 65t-65 96q-23 56 -23 117.5t23 117.5q23 55 65 96.5t96 64.5q56 24 117.5 24zM504 735
q-99 0 -182.5 -48.5t-132.5 -132t-49 -182.5t49 -183t132.5 -132.5t182.5 -48.5t182.5 48.5t132 132.5t48.5 183t-48.5 182.5t-132 132t-182.5 48.5zM516 377h-37q-5 0 -8.5 3.5t-3.5 9.5v192q0 5 3.5 9t8.5 4h37q5 0 9 -4t4 -9v-192q0 -6 -4 -9.5t-9 -3.5zM467 366v36
q0 5 3.5 9t8.5 4h193q5 0 9 -4t4 -9v-36q0 -5 -4 -9t-9 -4h-193q-5 0 -8.5 4t-3.5 9z" />
    <glyph glyph-name="uniE62C" unicode="&#xe62c;" 
d="M503.5 674q61.5 0 117.5 -24q55 -23 96.5 -64.5t64.5 -96.5q24 -56 24 -117.5t-24 -117.5q-23 -54 -64.5 -96t-96.5 -65q-56 -23 -117.5 -23t-117.5 23q-54 23 -96 65t-65 96q-23 56 -23 117.5t23 117.5q23 55 65 96.5t96 64.5q56 24 117.5 24zM504 735
q-99 0 -182.5 -48.5t-132.5 -132t-49 -182.5t49 -183t132.5 -132.5t182.5 -48.5t182.5 48.5t132 132.5t48.5 183t-48.5 182.5t-132 132t-182.5 48.5zM369 469v54q-37 -5 -56 -7l-10 44q85 6 155 28l16 -44q-35 -9 -57 -14v-61h58v-45h-58v-19q31 -27 64 -60l-27 -40
q-16 22 -37 52v-193h-48v189q-24 -55 -61 -103l-20 50q52 55 76 124h-63v45h68zM684 224h35v-47h-263v47h39v350h189v-350zM636 460v69h-95v-69h95zM636 342v73h-95v-73h95zM636 224v73h-95v-73h95z" />
    <glyph glyph-name="uniE62D" unicode="&#xe62d;" 
d="M512 686q62 0 118 -24q54 -22 96 -64t64 -96q24 -56 24 -118t-24 -118q-22 -54 -64 -96t-96 -64q-56 -24 -118 -24t-118 24q-54 22 -96 64t-64 96q-24 56 -24 118t24 118q22 54 64 96t96 64q56 24 118 24zM512 748q-99 0 -182.5 -49t-132.5 -132.5t-49 -182.5t49 -182.5
t132.5 -132.5t182.5 -49t182.5 49t132.5 132.5t49 182.5t-49 182.5t-132.5 132.5t-182.5 49zM547 589q149 0 149 -127q0 -128 -151 -128h-108v-163h-64v418h174zM437 388h104q47 0 69 18t22 56q0 39 -22 55q-22 17 -69 17h-104v-146z" />
    <glyph glyph-name="uniE62E" unicode="&#xe62e;" 
d="M247.5 354q-12.5 0 -21.5 9t-9 21.5t9 21.5q58 59 134 89q73 30 152 30t152 -30q76 -30 134 -89q9 -9 9 -21.5t-9 -21.5t-21.5 -9t-21.5 9q-101 101 -243 101t-243 -101q-9 -9 -21.5 -9zM657.5 210q-12.5 0 -21.5 9q-52 51 -124 51t-124 -51q-9 -9 -21.5 -9t-21.5 9
t-9 21.5t9 21.5q69 70 167 70t167 -70q9 -9 9 -21.5t-9 -21.5t-21.5 -9zM926.5 489q-12.5 0 -21.5 9q-81 81 -186 125q-101 42 -209.5 43t-208.5 -38q-103 -41 -182 -120q-9 -9 -21.5 -9t-21.5 9t-9 22t9 22q88 87 203 133q111 44 231.5 42.5t232.5 -47.5q115 -49 205 -138
q9 -9 9 -22t-9 -22t-21.5 -9zM512 102zM451 101.5q0 25.5 18 43.5t43 18t43 -18t18 -43.5t-18 -43t-43 -17.5t-43 17.5t-18 43z" />
    <glyph glyph-name="uniE62F" unicode="&#xe62f;" 
d="M803 521h-589q-43 0 -74 -31t-31 -74v-355q0 -44 31 -75t74 -31h589q43 0 74 31t31 75v355q0 43 -31 74t-74 31zM380 289q0 -5 -3.5 -8.5t-8.5 -3.5h-180q-5 0 -8.5 3.5t-3.5 8.5v37q0 5 3.5 8.5t8.5 3.5h180q5 0 8.5 -3.5t3.5 -8.5v-37zM543 246v-75q0 -13 -9 -22
t-22 -9t-22 9t-9 22v75q-35 18 -35 58q0 27 19.5 46t46.5 19t46.5 -19t19.5 -46q0 -40 -35 -58zM848 289q0 -5 -3.5 -8.5t-8.5 -3.5h-180q-5 0 -8.5 3.5t-3.5 8.5v37q0 5 3.5 8.5t8.5 3.5h180q5 0 8.5 -3.5t3.5 -8.5v-37zM264 475v170q0 41 29 70.5t70 29.5h298
q41 0 70 -29.5t29 -70.5v-170h62v170q0 66 -47.5 113.5t-113.5 47.5h-298q-66 0 -113.5 -47.5t-47.5 -113.5v-170h62z" />
    <glyph glyph-name="uniE630" unicode="&#xe630;" 
d="M891 677q-40 41 -93 62q-51 20 -106 20t-106 -20q-41 -17 -74 -45q-33 28 -74 45q-51 20 -106 20t-106 -20q-53 -21 -93 -62l-9 -9v-659l53 52q63 64 152.5 64t153.5 -64v-8h9v-1l20 1l20 -1v1h9v8q64 64 153.5 64t152.5 -64l53 -52v659zM330 186q-78 0 -144 -40v497
q61 55 145.5 55t146.5 -55l1 -500q-68 43 -149 43zM838 146q-66 40 -144 40q-81 0 -149 -43l1 500q62 55 146.5 55t145.5 -55v-497z" />
    <glyph glyph-name="uniE631" unicode="&#xe631;" 
d="M337 497h24l-12 40zM483.5 540.5q-3.5 2.5 -12.5 2.5h-16v-22h15q2 0 9 1q3 1 5.5 3.5t2.5 6.5q0 6 -3.5 8.5zM606.5 491q2.5 6 2.5 19q0 18 -5.5 24.5t-18.5 6.5h-9v-61h8q11 0 15.5 2.5t7 8.5zM845 637h-666q-30 0 -51 -21t-21 -50v-364q0 -29 21 -50t51 -21h666
q30 0 51 21t21 50v364q0 29 -21 50t-51 21zM542 566h51q15 0 24 -4.5t15 -12t9 -17.5t3 -21q0 -18 -4 -28t-11.5 -16.5t-15.5 -8.5q-11 -3 -20 -3h-51v111zM273.5 469.5q-6.5 -8.5 -16 -12.5t-24.5 -4q-18 0 -29.5 5t-20 18.5t-8.5 33.5q0 28 15 43t41 15q21 0 33 -8.5
t18 -26.5l-30 -7q-2 5 -3 8q-3 4 -7.5 6t-9.5 2q-11 0 -18 -9q-4 -7 -4 -22q0 -19 5.5 -25.5t15.5 -6.5t15 5.5t7 15.5l30 -9q-3 -13 -9.5 -21.5zM374 455l-6 18h-39l-5 -18h-35l42 111h37l42 -111h-36zM467 497q-4 3 -8 3h-4v-45h-34v111h57q16 0 24.5 -3t13.5 -10.5
t5 -17.5q0 -9 -4 -16t-11 -11q-4 -3 -12 -4q7 -2 9 -4t5.5 -6.5t5.5 -6.5l16 -32h-39l-18 34q-3 6 -6 8zM720 212q0 -5 -3.5 -8.5t-8.5 -3.5h-213q-5 0 -9 3.5t-4 8.5v37q0 5 4 8.5t9 3.5h213q5 0 8.5 -3.5t3.5 -8.5v-37zM839 212q0 -5 -3.5 -8.5t-8.5 -3.5h-37
q-5 0 -8.5 3.5t-3.5 8.5v37q0 5 3.5 8.5t8.5 3.5h37q5 0 8.5 -3.5t3.5 -8.5v-37z" />
    <glyph glyph-name="uniE632" unicode="&#xe632;" 
d="M246 541l34 -10l-37 -121l-34 11zM492 333l-34 11l37 120l34 -11zM329 515l34 -10l-37 -120l-34 10zM412 490l34 -11l-37 -120l-34 10zM161 268l38 120l34 -10l-38 -121zM444 180l-34 11l38 120l34 -11zM244 242l38 120l34 -10l-38 -120zM327 216l38 121l34 -11l-38 -120
zM148 104l-34 11l37 120l34 -10zM397 27l-34 11l37 120l34 -11zM231 79l-34 10l37 121l34 -11zM314 53l-34 11l37 120l34 -11zM811 724q-59 32 -133 48q-155 34 -243 -54v-1q-72 15 -139 -17.5t-100 -97.5l416 -129q9 67 -22 127t-89 93q61 42 163 20q50 -11 101 -35v-732
h61v769z" />
    <glyph glyph-name="uniE633" unicode="&#xe633;" 
d="M324 712q53 0 91.5 -39t40.5 -95q1 -45 -22.5 -81.5t-62.5 -52.5l21 -266q3 -47 -13 -82.5t-43 -35.5h-25q-26 0 -42.5 35.5t-12.5 82.5l20 266q-39 16 -62.5 52.5t-21.5 81.5q2 56 40.5 95t91.5 39zM324 755q-35 0 -66 -13t-55 -37q-25 -24 -39 -56q-16 -34 -17 -71
q-3 -60 28 -110q21 -33 52 -54l-20 -232q-8 -89 34 -145q30 -38 70 -38h26q40 0 69 38q43 56 35 145l-20 232q31 21 51 54q31 50 29 110q-2 37 -17 71q-14 32 -39 56q-24 24 -55 37q-32 13 -66 13zM822 752l-4 -129q0 -9 -10 -9h-25q-9 0 -10 9l-4 133h-35l-4 -133
q0 -9 -10 -9h-25q-9 0 -10 9l-4 133h-35l-4 -133q0 -9 -10 -9h-25q-10 0 -10 9l-4 129q-24 -9 -39.5 -30.5t-15.5 -47.5v-115q0 -50 29.5 -90.5t76.5 -55.5l-21 -291q-3 -48 16.5 -84t50.5 -36h29q31 0 51 36t16 84l-20 289q49 14 80 55t31 93v115q0 26 -15 47.5t-40 30.5z
" />
    <glyph glyph-name="uniE634" unicode="&#xe634;" 
d="M426 296q-86 86 -121.5 199.5t-16.5 229.5q-41 -26 -76 -61q-80 -79 -108 -185t0 -212t108 -185q59 -60 134.5 -90.5t156.5 -30.5t156.5 30.5t134.5 90.5q35 35 61 76q-40 -6 -81 -6q-96 0 -186.5 36.5t-161.5 107.5zM635 48q-63 -26 -132 -26t-132 26q-66 27 -116 77
t-77 116q-26 63 -26 132t26 132q17 43 45 80q6 -54 22 -106q20 -63 54 -120q35 -58 83 -107q80 -79 184 -121q72 -29 149 -38q-37 -28 -80 -45zM924 635l-153 22q-5 1 -8 6l-68 138q-3 6 -10 6t-10 -6l-68 -138q-2 -5 -8 -6l-153 -22q-6 -1 -8.5 -7.5t2.5 -11.5l111 -107
q4 -4 3 -10l-26 -152q-1 -5 2.5 -9t8.5 -4q2 0 5 1l136 72q2 1 5 1t5 -1l136 -72q3 -1 6 -1q4 0 7.5 4t2.5 9l-26 152q-1 6 3 10l111 107q5 5 2.5 11.5t-8.5 7.5zM777 552q-28 -26 -21 -64l9 -51l-46 25q-16 8 -34 8t-34 -8l-45 -25l8 51q7 38 -21 64l-37 37l52 7
q37 6 54 40l23 46l23 -46q17 -34 54 -40l52 -7z" />
    <glyph glyph-name="uniE635" unicode="&#xe635;" 
d="M899 403q-19 44 -53 78t-78 53q-46 20 -96 20h-109v-62h109q76 0 130.5 -54t54.5 -130v-112q0 -76 -54.5 -130t-130.5 -54h-174q-70 0 -123 47l-219 148q-25 17 -31 46.5t11 54.5q22 32 61 32q22 0 40 -12l76 -51v30q0 5 1 7q-1 1 -1 4v394q0 26 19 44.5t45 18.5
t45 -18.5t19 -44.5v-229q28 9 57 9h4v62v158q0 51 -36.5 88t-88.5 37t-88.5 -37t-36.5 -88v-322q-26 12 -55 12q-34 0 -63.5 -15.5t-48.5 -43.5q-15 -23 -20 -50q-5 -25 0 -51t19 -48q15 -23 37 -38l217 -146q69 -60 160 -60h174q50 0 96 20q44 18 78 52t53 78q19 46 19 96
v112q0 49 -19 95z" />
    <glyph glyph-name="uniE636" unicode="&#xe636;" 
d="M654 361q-24 10 -51 17q49 26 83 69q52 68 52 154q0 104 -74 178t-178.5 74t-178 -74t-73.5 -178q0 -86 52 -154q33 -43 82 -69q-50 -13 -95 -37q-67 -35 -120.5 -90t-85.5 -123q-34 -71 -42 -149l-1 -7l6 -5q14 -14 29 -27l24 -21v5v5q0 109 54 202t147 147t202 54
q56 0 110 -15q26 26 58 44zM351 466q-56 56 -56 134.5t56 134.5t135 56t134.5 -56t55.5 -134.5t-55.5 -134.5t-134.5 -56t-135 56zM976 108v30q0 11 6.5 19.5t17.5 11.5q-8 37 -29 69q-21 -12 -38 5l-21 21q-17 17 -6 38q-32 21 -68 29q-3 -10 -12 -16.5t-19 -6.5h-30
q-11 0 -19.5 6.5t-11.5 16.5q-37 -8 -69 -29q12 -21 -5 -38l-21 -21q-17 -17 -38 -5q-21 -32 -29 -69q10 -3 16.5 -11.5t6.5 -19.5v-30q0 -10 -6.5 -19t-16.5 -11q8 -37 29 -69q21 11 38 -6l21 -21q17 -17 5 -38q32 -20 69 -29q3 11 11.5 17.5t19.5 6.5h30q10 0 19 -6.5
t12 -17.5q36 9 68 29q-11 21 6 38l21 21q17 17 38 6q21 32 29 69q-11 2 -17.5 11t-6.5 19zM792 12q-46 0 -78.5 32.5t-32.5 78.5t32.5 78.5t78.5 32.5t78.5 -32.5t32.5 -78.5t-32.5 -78.5t-78.5 -32.5zM792 123zM717 123q0 31 22 53t53 22t53 -22t22 -53t-22 -53t-53 -22
t-53 22t-22 53z" />
    <glyph glyph-name="uniE637" unicode="&#xe637;" 
d="M808 770h-592q-12 0 -20 -8t-8 -19v-718q0 -11 8 -18.5t20 -7.5h592q12 0 20.5 7.5t8.5 18.5v718q0 11 -8.5 19t-20.5 8zM775 713v-140h-526v140h526zM249 55v456h526v-456h-526zM308 396h408v-61h-408v61zM308 237h408v-61h-408v61z" />
    <glyph glyph-name="uniE638" unicode="&#xe638;" 
d="M492 864h40v-230h-40v230zM512 464q-12 0 -21 -7.5t-9 -18.5v-104q0 -10 9 -17.5t21 -7.5t21 7.5t9 17.5v104q0 11 -9 18.5t-21 7.5zM657 603h-33h-104h-16h-90h-47q-41 0 -69.5 -29t-28.5 -69v-174v-72v-79q0 -101 71.5 -172.5t171.5 -71.5t171.5 71.5t71.5 172.5v79v72
v174q0 40 -28.5 69t-69.5 29zM695 426h-119v-60h119v-35v-72v-79q0 -76 -54 -130t-129.5 -54t-129 54t-53.5 130v79v72v35h119v60h-119v79q0 15 11 26t27 11h47h90h16h104h33q16 0 27 -11t11 -26v-79z" />
    <glyph glyph-name="uniE639" unicode="&#xe639;" 
d="M492 580h-66v-274h66q72 0 105 33q32 34 32 104q0 72 -32 104q-33 33 -105 33zM727 722h-429q-36 0 -62 -25.5t-26 -61.5v-555q0 -36 26 -61.5t62 -25.5h429q25 0 46 13.5t32 35.5h-502q-13 0 -22.5 9.5t-9.5 23.5v41q0 13 9.5 23t22.5 10h340h2h51q48 0 83 34.5t35 83.5
v71v42v255q0 36 -25.5 61.5t-61.5 25.5zM645 304q-48 -51 -141 -51h-140v380h140q93 0 141 -51q46 -48 46 -139q0 -90 -46 -139z" />
    <glyph glyph-name="uniE63A" unicode="&#xe63a;" 
d="M299 585h-180q-5 0 -8.5 3.5t-3.5 9.5v179q0 5 3.5 8.5t8.5 3.5h180q5 0 8.5 -3.5t3.5 -8.5v-179q0 -6 -3.5 -9.5t-8.5 -3.5zM299 431h-180q-5 0 -8.5 3.5t-3.5 8.5v82q0 5 3.5 8.5t8.5 3.5h180q5 0 8.5 -3.5t3.5 -8.5v-82q0 -5 -3.5 -8.5t-8.5 -3.5zM883 585h-179
q-5 0 -8.5 3.5t-3.5 9.5v179q0 5 3.5 8.5t8.5 3.5h179q5 0 9 -3.5t4 -8.5v-179q0 -6 -4 -9.5t-9 -3.5zM580 585h-179q-5 0 -8.5 3.5t-3.5 9.5v179q0 5 3.5 8.5t8.5 3.5h179q5 0 8.5 -3.5t3.5 -8.5v-179q1 -6 -3 -9.5t-9 -3.5zM837 476v-384h-384v384h384zM886 537h-482
q-5 0 -8.5 -3.5t-3.5 -8.5v-483q0 -5 3.5 -8.5t8.5 -3.5h482q5 0 8.5 3.5t3.5 8.5v483q0 5 -3.5 8.5t-8.5 3.5zM299 30h-180q-5 0 -8.5 3.5t-3.5 8.5v82q0 5 3.5 8.5t8.5 3.5h180q5 0 8.5 -3.5t3.5 -8.5v-82q0 -5 -3.5 -8.5t-8.5 -3.5zM299 299h-180q-5 0 -8.5 3.5t-3.5 9.5
v81q0 5 3.5 8.5t8.5 3.5h180q5 0 8.5 -3.5t3.5 -8.5v-81q0 -6 -3.5 -9.5t-8.5 -3.5zM299 165h-180q-5 0 -8.5 3.5t-3.5 9.5v81q0 5 3.5 8.5t8.5 3.5h180q5 0 8.5 -3.5t3.5 -8.5v-81q0 -6 -3.5 -9.5t-8.5 -3.5z" />
    <glyph glyph-name="uniE63B" unicode="&#xe63b;" 
d="M655 635h-121v-62h121q41 0 79 -16q37 -15 65.5 -43.5t43.5 -65.5q16 -38 16 -79v-99q0 -41 -16 -79q-15 -37 -43.5 -65.5t-65.5 -43.5q-38 -16 -79 -16h-286q-41 0 -79 16q-37 15 -65.5 43.5t-43.5 65.5q-15 34 -16 70h-62q4 -107 81.5 -182t184.5 -75h286
q110 0 188 78.5t78 187.5v99q0 109 -78 187.5t-188 78.5zM491 442q5 -5 11 -2t6 9v304q0 7 -6 9.5t-11 -1.5l-165 -152q-8 -8 0 -15z" />
    <glyph glyph-name="uniE63C" unicode="&#xe63c;" 
d="M216.5 679.5q-82.5 -82.5 -82.5 -199t82.5 -199t199 -82.5t199 82.5t82.5 199t-82.5 199t-199 82.5t-199 -82.5zM636 480.5q0 -91.5 -64.5 -156t-155.5 -64.5t-155.5 64.5t-64.5 156t64.5 155.5t155.5 64t155.5 -64t64.5 -155.5zM643.5 252q-8.5 -9 -8.5 -21.5t8 -21.5
l195 -194q8 -9 21 -9t22 9t9 22t-9 21l-194 194q-9 9 -22 9t-21.5 -9z" />
    <glyph glyph-name="uniE63D" unicode="&#xe63d;" 
d="M512 796q-112 0 -206.5 -55.5t-150 -150t-55.5 -206.5t55.5 -207t150 -150t206.5 -55t206.5 55t150 150t55.5 207t-55.5 206.5t-150 150t-206.5 55.5zM760 136q-49 -48 -112 -75q-65 -27 -136 -27t-136 27q-63 27 -112 75q-48 49 -75 112q-27 65 -27 136q0 72 27 136
q27 63 75 112q49 48 112 75q65 27 136 27q72 0 136 -27q63 -27 112 -75q48 -49 75 -112q27 -65 27 -136q0 -72 -27 -136q-27 -63 -75 -112zM341 462zM283 462q0 24 17 41t41 17t41 -17t17 -41t-17 -40.5t-41 -16.5t-41 16.5t-17 40.5zM683 462zM625 462q0 24 17 41t41 17
t41 -17t17 -41t-17 -40.5t-41 -16.5t-41 16.5t-17 40.5zM651 292h-278q-11 0 -16.5 -10t-2.5 -21q16 -51 59.5 -83t98.5 -32t98.5 32t59.5 83q3 11 -2.5 21t-16.5 10z" />
    <glyph glyph-name="uniE63E" unicode="&#xe63e;" 
d="M697 516h-37q-5 0 -8.5 3.5t-3.5 8.5v98q0 5 3.5 8.5t8.5 3.5h37q5 0 8.5 -3.5t3.5 -8.5v-98q0 -5 -3.5 -8.5t-8.5 -3.5zM781 761h-234h-304h-121q-5 0 -8.5 -3.5t-3.5 -8.5v-121v-390v-73v-52v-121q0 -5 3.5 -9t8.5 -4h49v402q0 5 3.5 8.5t9.5 3.5h656q6 0 9.5 -3.5
t3.5 -8.5v-402h49q5 0 8.5 4t3.5 9v121v125v390q0 55 -39 94t-94 39zM791 467q0 -6 -3.5 -9.5t-8.5 -3.5h-534q-5 0 -8.5 3.5t-3.5 9.5v221q0 5 3.5 8.5t8.5 3.5h534q5 0 8.5 -3.5t3.5 -8.5v-221zM779 207h-534q-5 0 -8.5 3.5t-3.5 8.5v37q0 5 3.5 8.5t8.5 3.5h534
q5 0 8.5 -3.5t3.5 -8.5v-37q0 -5 -3.5 -8.5t-8.5 -3.5zM779 81h-534q-5 0 -8.5 4t-3.5 9v37q0 5 3.5 8.5t8.5 3.5h534q5 0 8.5 -3.5t3.5 -8.5v-37q0 -5 -3.5 -9t-8.5 -4z" />
    <glyph glyph-name="uniE63F" unicode="&#xe63f;" 
d="M861 696v-66q4 -3 7 -6q14 -14 14 -33v-289q0 -19 -14 -33t-33 -14h-646q-19 0 -33 14t-14 33v289q0 19 14 33q3 3 7 6v66q-36 -9 -59 -38t-23 -67v-289q0 -45 31.5 -76.5t76.5 -31.5h19v-195q0 -4 3 -7t7 -3h588q4 0 7 3t3 7v195h19q45 0 76.5 31.5t31.5 76.5v289
q0 38 -23 67t-59 38zM755 50h-486v143h486v-143zM218 576h588q4 0 7 3t3 7v183q0 4 -3 7t-7 3h-588q-4 0 -7 -3t-3 -7v-183q0 -4 3 -7t7 -3zM269 718h486v-81h-486v81zM180 416h664q5 0 8.5 3.5t3.5 8.5v37q0 5 -3.5 8.5t-8.5 3.5h-664q-5 0 -8.5 -3.5t-3.5 -8.5v-37
q0 -5 3.5 -8.5t8.5 -3.5z" />
    <glyph glyph-name="uniE640" unicode="&#xe640;" 
d="M440 251q-30 9 -44.5 37.5t-5.5 58.5l86 274q10 30 38 44.5t58 5.5q30 -10 44.5 -38t5.5 -58l-86 -274q-9 -30 -37 -45t-59 -5zM748 557l-1 2q-5 14 -15.5 20t-19.5 0l-67 -41l-46 -147l141 119q9 6 11.5 19.5t-3.5 27.5zM275 123l-1 2q-3 15 5 28t23 16l262 96
q13 3 28 -18.5t19 -40.5l1 -2q3 -15 -5 -28t-22 -17l-266 -63q-15 -4 -28 4t-16 23zM366 73l-51 -130q-7 -11 -1.5 -22t19.5 -16l1 -1q14 -4 28 0.5t20 15.5l98 174zM395 350l18 22q14 18 36 22t39 -9l122 -131q32 -38 5 -72l-2 -3q-15 -18 -37 -22t-39 9l-136 107
q-17 14 -18.5 36.5t12.5 40.5zM566 653l7 -17q6 -14 -3.5 -30t-28.5 -24l-166 -48q-45 -11 -56 15l-1 3q-6 14 3.5 30t28.5 24l155 63q19 8 37 3.5t24 -19.5zM565 779zM473 779q0 38 27 65t65 27t64.5 -27t26.5 -65t-26.5 -65t-64.5 -27t-65 27t-27 65zM465 378l-1 -1
q-12 -6 -24 -3t-16 13l-105 162q-4 9 13 23.5t32 21.5l2 1q12 6 24 3t16 -13l78 -171q5 -9 -1 -20t-18 -16z" />
    <glyph glyph-name="uniE641" unicode="&#xe641;" 
d="M851 49l-487 487l43 43l487 -487zM935 804h-844q-13 0 -22 -9t-9 -22v-470q0 -14 9 -23t22 -9h451l-61 61h-360v411h784v-411h-164l62 -61h132q13 0 22.5 9t9.5 23v470q0 13 -9.5 22t-22.5 9z" />
    <glyph glyph-name="uniE642" unicode="&#xe642;" 
d="M485 494l-22 83q-5 22 6.5 41.5t32.5 24.5l50 13q22 6 41.5 -5.5t25.5 -33.5l21 -84q6 -21 -6 -40.5t-33 -25.5l-50 -13q-22 -5 -41.5 6.5t-24.5 33.5zM416 195l19 139q6 41 34 66t59 13l32 -13q31 -12 33.5 -50.5t-20.5 -70.5l-82 -114q-6 -7 -17.5 -9t-22.5 3l-11 4
q-12 5 -19 14t-5 18zM713 212l-128 32q-38 10 -61.5 35.5t-12.5 49.5l13 28q13 24 47 23t66 -24l105 -80q8 -6 10.5 -16.5t-2.5 -19.5l-5 -11q-4 -9 -13.5 -14t-18.5 -3zM237 -47l131 198q23 35 53 53t47 5l11 -9q16 -13 6 -46.5t-38 -64.5l-160 -175q-10 -11 -22.5 -13.5
t-21.5 3.5l-5 5q-9 6 -9 19t8 25zM636 -19l15 182q4 49 27.5 87t50.5 33q26 -6 32.5 -51t-10.5 -91l-60 -172q-3 -11 -13 -17t-20 -4t-16.5 11.5t-5.5 21.5zM540 767zM439 767q0 42 29.5 71.5t72 29.5t72 -29.5t29.5 -71.5t-29.5 -72t-72 -30t-72 30t-29.5 72zM247 371
q-13 16 -3 27l128 147q39 44 90 63.5t76 -7.5q22 -28 -9.5 -74.5t-83.5 -73.5l-173 -90q-13 -7 -25 8zM785 476q-3 -10 -11.5 -16.5t-18.5 -5.5l-104 10q-35 3 -60 24.5t-18 46.5t40 30.5t63 -9.5l95 -45q9 -5 13 -15t1 -20zM480 433l6 76q2 27 20 44t42 13l41 -7
q25 -4 38 -27.5t8 -50.5l-17 -77q-4 -22 -21.5 -34t-38.5 -8l-34 8q-20 4 -33 22.5t-11 40.5z" />
    <glyph glyph-name="uniE643" unicode="&#xe643;" 
d="M904 353h-784q-6 0 -6 7v48q0 7 6 7h784q6 0 6 -7v-48q0 -7 -6 -7z" />
    <glyph glyph-name="uniE644" unicode="&#xe644;" 
d="M770 577l-198 197q-20 21 -49 21t-49 -21l-198 -197q-20 -21 -20 -50t20 -49h109q-2 -14 -2 -21v-349q0 -58 41 -99t99 -41t99 41t41 99v349q0 7 -2 21h109q21 20 21 49t-21 50z" />
    <glyph glyph-name="uniE645" unicode="&#xe645;" 
d="M770 186l-198 -197q-20 -21 -49 -21t-49 21l-198 197q-20 21 -20 50t20 49h109q-2 14 -2 21v349q0 58 41 99t99 41t99 -41t41 -99v-349q0 -7 -2 -21h109q21 -20 21 -49t-21 -50z" />
    <glyph glyph-name="uniE646" unicode="&#xe646;" 
d="M763 775h-483q-14 0 -24 -10t-10 -24v-69q0 -14 10 -24.5t24 -10.5h156l-158 -158q-20 -20 -20 -48.5t20 -48.5h106v-296q0 -58 40.5 -98t97.5 -40t97.5 40t40.5 98v296h106q20 20 20 48.5t-20 48.5l-159 158h156q14 0 24.5 10.5t10.5 24.5v69q0 14 -10.5 24t-24.5 10z
" />
    <glyph glyph-name="uniE647" unicode="&#xe647;" 
d="M788 -10v69q0 14 -10 24.5t-25 10.5h-155l158 158q20 20 20 48.5t-20 48.5h-106v296q0 57 -40.5 97.5t-97.5 40.5t-97.5 -40.5t-40.5 -97.5v-296h-106q-20 -20 -20 -48.5t20 -48.5l158 -159h-155q-15 0 -25 -10t-10 -24v-69q0 -14 10 -24.5t25 -10.5h482q15 0 25 10.5
t10 24.5z" />
    <glyph glyph-name="uniE648" unicode="&#xe648;" 
d="M981 741h-232h-1h-1q-4 0 -6 -3l-133 -174h-493h-60h-19q-8 0 -8 -8v-43q0 -9 8 -9h17q3 -70 30 -134q30 -70 84 -124t124 -84q4 -2 7 -3l-48 -63q-16 10 -34 10q-27 0 -46 -19t-19 -46t19 -45.5t46 -18.5q25 0 44 17.5t20 42.5l123 160l238 -193q19 -27 53 -27
q27 0 46 18.5t19 45.5t-19 46t-46 19q-32 0 -52 -26l-202 165l333 436h208q8 0 8 9v43q0 8 -8 8zM563 504l-90 -116q-70 34 -149 39q-80 5 -154 -21q-16 -6 -31 -13q-23 54 -26 111h450zM167 340q73 32 153 27q61 -3 116 -28l-100 -130q-106 36 -169 131z" />
    <glyph glyph-name="uniE649" unicode="&#xe649;" 
d="M539 799zM442 799q0 40 28.5 68.5t68.5 28.5t68.5 -28.5t28.5 -68.5t-28.5 -68.5t-68.5 -28.5t-68.5 28.5t-28.5 68.5zM965 362q-2 0 -18 -1v38q0 7 -4.5 11.5t-10.5 4.5t-10.5 -4.5t-4.5 -11.5v-39q-1 0 -1 -1v71q0 13 -9 22t-22 9t-22 -9t-9 -22v-74q-18 -1 -48 -4h-2
h-1q-7 24 -42 93q-65 130 -89 210q-3 10 -11.5 16t-19.5 6q-105 13 -210 -1q-3 0 -5 -2q-16 -5 -21 -21q-22 -76 -108 -234q-23 -44 -30 -59q-2 -2 -4 -6q-17 1 -40 3v73q0 13 -9 22t-22 9t-22 -9t-9 -22v-29q-1 14 -15 14q-6 0 -10.5 -4.5t-4.5 -11.5v-38q-5 0 -9 0.5
t-6 0.5h-3h-1q-8 0 -14 -6t-6.5 -14.5t5.5 -14.5t14 -6q2 0 20 -1v-37q0 -6 4.5 -10.5t10.5 -4.5t10.5 4t4.5 10v-30q0 -13 9 -22t22 -9t22 9t9 22v63q5 0 16 -0.5t15 -1.5l2 -6q6 -14 21 -19q4 -1 9 -1q22 0 29 21q79 -7 138 -18q-2 -27 -2 -37q-7 -138 -12 -198
q-7 -82 -15 -104q-14 -12 -10 -30q2 -10 10.5 -17t19.5 -7q3 0 6 1q19 4 29 26q5 10 8 28q6 28 11 78q6 64 14 220q0 4 0.5 13t1.5 14q8 -3 19 -6q2 -1 6 -1q3 0 6 1q6 1 20 5q1 -5 1.5 -13.5t0.5 -11.5q13 -158 21 -220q6 -51 12 -78q12 -47 37 -54q4 -1 8 -1q10 0 18.5 6
t10.5 17q5 19 -10 31q-8 22 -18 104q-7 62 -18 199q-2 25 -2 34q55 9 126 17q9 -12 24 -13h1q20 0 28 18q30 2 49 4v-63q0 -12 9 -21t22 -9t22 9t9 21v67h1v-36q0 -6 4.5 -10.5t10.5 -4.5t10.5 4.5t4.5 10.5v37q5 0 10 0.5t7 0.5h3q8 0 14 6t5.5 14.5t-6.5 14.5t-15 6z
M706 417q23 -45 31 -63q1 -2 3 -8q-54 -6 -96 -13q-1 26 -22 166l15 69q22 -56 69 -151zM351 389q63 116 90 181l15 -71q-21 -138 -22 -164q-45 7 -105 13q7 14 22 41z" />
    <glyph glyph-name="uniE64A" unicode="&#xe64a;" 
d="M479 785zM400 785q0 33 23 56t56 23t56 -23t23 -56t-23 -56t-56 -23t-56 23t-23 56zM784 606q-4 17 -20 23q-59 19 -142 74q-9 6 -20 4.5t-18 -8.5q-70 -15 -125 -40q-20 7 -33 -8q-36 -39 -85 -106q-20 -28 -30.5 -41t-26.5 -29.5t-31 -26.5q-10 -7 -13 -19t4 -23
q9 -14 26 -14q9 0 16 5q20 12 39.5 31.5t31 35t34.5 45.5q33 45 51 67q9 -23 26 -44q43 -55 51 -135l-110 -144q-4 -5 -5 -11q-20 -74 -35 -181q-7 -56 -12 -68q-21 -8 -20 -31q0 -12 9 -20.5t21 -8.5h1q22 1 36 18q8 11 13 29q6 18 13 73q14 99 32 168l110 144h8l-66 -184
q-8 -20 9 -33q8 -8 19 -8q8 0 15 4q24 13 70 66q22 26 32 35q13 -4 24 4q11 7 13.5 19.5t-4.5 22.5q-11 17 -31 19q-20 1 -43 -19l30 84q2 6 2 12q6 7 7.5 12.5t1 12.5t-2 30.5t-1.5 50.5q0 45 -21 130q51 -30 93 -46q9 -42 13 -71q4 -34 2 -42q-3 -13 3 -24t18 -15
q4 -1 9 -1q22 0 29 22q10 31 -17 160zM286 291zM204 291.5q0 33.5 24 57.5t58 24t57.5 -24t23.5 -57.5t-23.5 -57.5t-57.5 -24t-58 24t-24 57.5z" />
    <glyph glyph-name="uniE64B" unicode="&#xe64b;" 
d="M636 700zM535 700q0 42 29.5 72t71.5 30t72 -30t30 -72t-30 -71.5t-72 -29.5t-71.5 29.5t-29.5 71.5zM358 416l1 2l16 37q-2 -6 -10 -25zM862 323q-21 29 -56 69q-85 95 -172 158q-5 4 -11 5q-1 3 -4 5l-75 54q-6 20 -27 22q-8 0 -70 6q-91 8 -141 11t-103.5 2.5
t-82.5 -10t-45 -28.5q-20 -27 -9 -62q7 -21 30 -21q5 0 9 1q12 4 18 15.5t2 23.5q-1 3 -1 5q5 6 25 10q27 6 74 6q61 0 218 -14q3 0 9 -0.5t9 -1.5l-100 -161q0 -1 -1 -2q-24 -55 -18.5 -90t36 -34.5t80.5 36.5q4 -2 11 0t12 6q9 -9 22 -9q5 0 10 2l51 18q2 -5 4.5 -11.5
t5 -14.5t4.5 -13q-25 -36 -41 -64q-22 -37 -32 -65q-13 11 -14 3l-17 -77q-1 -6 4.5 -11.5t14.5 -7.5l55 -12q2 0 4 1q20 1 27 19q5 12 -0.5 24t-16.5 16l-2 1q-5 17 27 74q9 15 17 28q32 -86 55 -122q-5 -3 -2 -7l51 -60q4 -4 11.5 -3t14.5 7l29 25q5 3 8 6q0 1 1 1l5 5
q3 2 1 6q7 18 -6 32q-9 9 -21.5 9.5t-21.5 -8.5l-1 -1q-14 11 -36 56q-17 37 -45 116q13 19 38 54q23 31 33 46q17 -16 34 -35q51 -55 71 -87v-1q-2 -12 5 -22.5t20 -12.5q4 -1 6 -1q23 0 31 20q9 23 -21 65zM587 514q4 -8 11 -13q32 -24 65 -54l-173 -62q-4 -1 -7 -4
q17 56 104 133zM473 73zM459 73.5q0 5.5 4 9.5t10 4t10 -4t4 -9.5t-4 -10t-10 -4.5t-10 4.5t-4 10zM564 52zM550 51.5q0 5.5 4.5 10t10 4.5t9.5 -4.5t4 -10t-4 -9.5t-9.5 -4t-10 4t-4.5 9.5zM799 89zM785 89q0 6 4 10t10 4t10 -4t4 -10t-4 -10t-10 -4t-10 4t-4 10zM727 29z
M713 29.5q0 5.5 4 9.5t10 4t10 -4t4 -9.5t-4 -10t-10 -4.5t-10 4.5t-4 10zM754 46zM740 46q0 6 4 10t10 4t10 -4t4 -10t-4 -10t-10 -4t-10 4t-4 10zM777 66zM763 66q0 6 4.5 10t10 4t9.5 -4t4 -10t-4 -10t-9.5 -4t-10 4t-4.5 10zM531 56zM517 56.5q0 5.5 4 9.5t10 4t10 -4
t4 -9.5t-4 -9.5t-10 -4t-10 4t-4 9.5zM501 64zM488 64.5q0 5.5 4 9.5t9.5 4t9.5 -4t4 -9.5t-4 -10t-9.5 -4.5t-9.5 4.5t-4 10z" />
    <glyph glyph-name="uniE64C" unicode="&#xe64c;" 
d="M552 753zM466 753q0 36 25.5 61t61 25t61 -25t25.5 -61t-25.5 -61t-61 -25t-61 25t-25.5 61zM912 -14q-2 19 -14 50q-13 35 -55 121q-1 2 -3.5 6.5t-3.5 6.5l-16 196v1q7 3 7 7q3 13 -19.5 98.5t-41.5 137.5q-9 23 -31.5 41t-55 23t-69.5 -16q-8 -5 -10 -20t3 -25
q2 -3 3 -5q-6 -43 -14 -79q0 -4 -2 -11.5t-2 -8.5q-44 -8 -85 6q-6 2 -13 5l1 1q1 8 -7 9l-15 2q-3 3 -4 5q-5 12 -17 16.5t-23 -0.5q-5 -2 -8 -5q-5 15 -21 27t-37 16q-29 6 -52 -4t-27 -29.5t13.5 -38t45.5 -23.5q46 -10 70 16q16 -36 73 -55q36 -12 75 -12h13
q-3 -8 -6 -14q-25 -4 -108 5q-41 4 -60 5q6 6 6 14q0 9 -6 15t-14.5 6t-14.5 -6t-6 -14.5t6 -14.5q-13 -2 -22 -6q-12 -5 -16.5 -17t1 -23.5t17 -16t23.5 0.5q6 2 26 1q15 -1 53 -5q62 -7 90 -7q33 0 54 7q7 3 12 8q26 27 48 134v1v1q37 -69 46 -85l1 -75l-103 -123
q-7 -7 -7 -17q-7 -82 -15 -129t-17 -63q-10 -3 -16.5 -11t-6.5 -19q-1 -12 8 -21.5t22 -9.5h1q30 0 48 37q11 21 18 58q11 50 18 143l111 131v1l15 -177q0 -6 3 -11l9 -18q34 -69 47 -100q14 -35 16 -51q-14 -17 -3 -36q9 -14 26 -14q9 0 17 5q14 9 19 26q3 12 2 26z
M381 241h-285v-61l286 43q8 1 7.5 9.5t-8.5 8.5zM489 322h-393v-61h393q6 0 10 4t4 9v35q0 5 -4 9t-10 4z" />
    <glyph glyph-name="uniE64D" unicode="&#xe64d;" 
d="M501 736zM404 735.5q0 40.5 28.5 69t69 28.5t68.5 -28.5t28 -69t-28 -69t-68.5 -28.5t-69 28.5t-28.5 69zM883 19l-159 241q-3 5 -11 5h-34q4 17 -0.5 44.5t-18.5 93.5q-23 109 -36 182q-2 13 -12.5 20.5t-22.5 4.5q-4 0 -9 -2q-12 11 -29 11q-25 -13 -50 -13t-50 13
q-15 0 -27 -10q-1 0 -2 1h-1q-12 5 -23.5 0t-16.5 -17l-5 -14q-38 -98 -53.5 -146t-13.5 -72q1 -8 5 -15q30 -41 52 -81h-76q-9 0 -12 -5l-159 -241q-3 -6 -1 -9.5t8 -3.5h750q7 0 9 3.5t-2 9.5zM616 311q5 -25 4 -33q-2 -3 -3 -6l-20 60q-2 7 -9 13l4 84q1 -7 4 -20t4 -19
q13 -59 16 -79zM387 435q7 21 21 56l6 -146q-6 -6 -9 -13l-2 -8q-15 23 -33 49q3 18 17 62zM168 36l130 198h85q16 -34 16 -45q1 -12 10 -20.5t21 -8.5h1q13 0 21.5 9.5t8.5 21.5q-1 17 -11 43h255l130 -198h-667zM466 140q0 6 -9.5 10.5t-23.5 4.5t-23.5 -4.5t-9.5 -10.5
v-1v-8v-1v-1v-1q5 -13 33 -13t33 13v1v1v1v8v1zM534 70q0 7 -9.5 11.5t-23 4.5t-23.5 -4.5t-10 -11.5l1 -1v-7h-1v-1q0 -1 1 -1v-1q4 -14 32.5 -14t32.5 14v1v1v1v7v1zM534 209q0 6 -9.5 10.5t-23 4.5t-23.5 -4.5t-10 -10.5q0 -1 1 -1v-8h-1v-1l1 -1v-1q4 -13 32.5 -13
t32.5 13v1v1v1v8v1zM613 209q0 6 -9.5 10.5t-23.5 4.5t-23.5 -4.5t-9.5 -10.5v-1v-8v-1v-1l1 -1q4 -13 32 -13t33 13v1v1v1v8v1zM613 70q0 7 -9.5 11.5t-23.5 4.5t-23.5 -4.5t-9.5 -11.5v-1v-7v-1v-1q0 -1 1 -1q4 -14 32 -14t33 14v1v1v1v7v1zM704 104v-8v-1v-1l1 -1
q4 -13 32.5 -13t32.5 13v1v1v1v8v1q0 6 -9.5 10.5t-23 4.5t-23.5 -4.5t-10 -10.5v-1zM363 96q0 7 -9.5 11.5t-23 4.5t-23 -4.5t-9.5 -11.5v-1v-7v-1v-1v-2q4 -13 32.5 -13t32.5 13v2v1v1v7v1zM695 210q0 6 -10 10.5t-23.5 4.5t-23 -4.5t-9.5 -10.5v-1v-8v-1v-1v-1
q5 -13 33 -13t32 13l1 1v1v1v8v1z" />
    <glyph glyph-name="uniE64E" unicode="&#xe64e;" 
d="M341 768zM246 768q0 39 27.5 67t67 28t67 -28t27.5 -67t-27.5 -67t-67 -28t-67 28t-27.5 67zM949 824q-14 10 -32 10q-47 0 -81 -47q-6 -8 -10 -16q-1 -2 -3 -5q-9 -20 -10 -40l-4 -16q-5 -18 -11 -37t-17.5 -50t-15.5 -42l-20 -27q-5 -4 -9 -11q-10 -10 -58 -18
q-36 -6 -126 -14q-2 -1 -6 -1h-6q-50 11 -92 37h5q74 0 165 39q2 1 6 2l3 2q12 5 17 16.5t0 23.5t-16.5 16.5t-23.5 0.5q-1 -1 -10 -4q-49 -22 -88 -29q-30 -6 -60 -6l-2 30q-6 2 -15.5 4t-35.5 5t-47.5 1.5t-44 -12t-32.5 -29.5q-8 -15 -10.5 -22t-2 -42.5t10.5 -92.5
q3 -25 2 -42t-3.5 -43t-2.5 -34l-54 -134q-62 -32 -116 -85q-63 -63 -64 -107q0 -32 26 -46q7 -4 15 -4q18 0 27 16q11 20 -5 36q8 24 45 61q51 52 109 79q11 5 15 16l67 164q1 3 1 6l144 -83q7 -76 52 -163q56 -107 113 -124q5 -2 9 -2q23 0 30 22q4 12 -2 23.5t-18 14.5
q-14 4 -35 29t-42 65q-46 88 -47 153q0 18 -15 26l-118 69q-5 39 26 126q48 -28 105 -41h6h3q9 1 17 1q100 9 141 17l17 -11q3 -2 9 1.5t10 11.5l6 9q40 14 52 40q8 19 -6 34v1q12 11 36.5 34t41.5 38t33 27q8 6 14 10q28 15 46 44q21 34 18.5 68.5t-26.5 50.5zM819 684
q7 -14 20 -23q14 -9 31 -10q-20 -16 -54 -47q-1 3 -3 5l-13 8q-1 1 -3 1q15 41 22 66zM940 716q-13 -21 -33 -33q-18 -11 -35 -11q-12 0 -21 6q-14 9 -17 28q-6 35 19 69q13 19 31 29q17 9 33 9q12 0 21 -6q16 -10 17 -35q3 -28 -15 -56zM629 376zM592 376.5q0 15.5 10.5 26
t26 10.5t26.5 -10.5t11 -26t-11 -26.5t-26.5 -11t-26 11t-10.5 26.5z" />
    <glyph glyph-name="uniE64F" unicode="&#xe64f;" 
d="M250 667zM145 667.5q0 43.5 30.5 74t74 30.5t74 -30.5t30.5 -74t-30.5 -74t-74 -30.5t-74 30.5t-30.5 74zM856 842q-1 13 -11 21t-23 6q-18 -2 -41.5 -26t-71.5 -94q-46 -67 -128 -195l-104 18l-28 30q7 -1 12 -1q42 0 90 21q73 32 107 80q31 43 2 72q-9 9 -21.5 9
t-21.5 -9q-15 -14 -7 -33q-8 -12 -30 -30t-54 -32q-60 -27 -94 -11q-12 6 -24 2t-17 -16q-1 -2 -2 -5l-73 -94q-22 1 -31 -18q-19 -43 -31.5 -90t-14.5 -65.5t-3 -28.5q-1 -14 9 -24q8 -9 22 -9q94 2 168 21q12 3 18.5 14t3.5 23t-14 18.5t-23 3.5q-49 -12 -118 -17
q9 53 28 102l171 -113q5 -4 10 2q-1 -36 -3 -84t-3 -80t-1 -35q-2 -41 -8 -98q-9 -92 -16 -115q-14 -18 0 -37q10 -12 25 -12q10 0 18 7q16 11 23 60q6 31 10 80q10 94 10 112v1l1 42q1 42 3 102t3 97v5l18 48q10 3 17 13q97 153 144 222q33 49 55 76q19 24 28 31
q10 3 16.5 12.5t4.5 20.5z" />
    <glyph glyph-name="uniE650" unicode="&#xe650;" 
d="M299 621zM219 621q0 33 23.5 56t56 23t56 -23t23.5 -56t-23.5 -56t-56 -23t-56 23t-23.5 56zM120 349q29 0 94 33q28 14 44.5 21.5t42.5 14t47 4.5q3 0 6 1q38 -42 66 -63q158 18 291 -1q-7 21 -54 63t-90 60q-77 34 -132 70q3 4 5 9q6 9 44 25q44 18 131 42
q25 -32 49 -61q45 -53 70 -70.5t42 -17.5q13 0 22 9t9 22q0 12 -8 20.5t-20 9.5q-21 10 -73 72q-39 47 -54 70q-13 17 -33 11q-125 -34 -176 -58t-61 -54q-2 -4 -2 -9q-3 -4 -11.5 -18t-14.5 -22.5t-14.5 -20t-15.5 -18.5t-14 -11q-46 -6 -124 -45q-33 -17 -47 -22
q-16 -6 -22 -5q-12 4 -23 -3t-14 -19t3.5 -23t18.5 -14q8 -2 18 -2zM798 307q-75 0 -134 -45q-58 45 -133 45t-134 -46q-59 45 -133 45h-1q-91 0 -155 -65q-9 -9 -9 -21.5t9 -21.5t21.5 -9t21.5 9q47 46 112 47h1q65 0 111 -46q9 -9 22 -9t22 9q46 46 112 46t112 -46
q9 -9 21.5 -9t21.5 9q47 47 112 47h1q65 0 111 -46q9 -9 21.5 -9t21.5 9t9 21.5t-9 21.5q-64 64 -154 64h-1zM798 186q-75 0 -134 -45q-59 45 -134 45t-134 -46q-58 45 -133 45q-91 0 -156 -65q-9 -9 -9 -21.5t9 -21.5t22 -9t22 9q46 46 112 47q66 0 112 -46q9 -9 21 -9h1
q12 0 21 9q47 46 113 46q65 0 111 -46q9 -9 22 -9t22 9q46 47 112 47t112 -46q9 -9 21.5 -9t21.5 9t9 21.5t-9 21.5q-64 64 -155 64z" />
    <glyph glyph-name="uniE651" unicode="&#xe651;" 
d="M846 118q-2 7 -7 12q20 8 20 30q-1 13 -10 21.5t-22 8.5h-2q-45 0 -88 65q-52 78 -96 240q-3 13 -14 19t-23 3l-6 -2q-13 11 -31 11h-12q-27 -9 -54 -9t-52 8h-16q-17 0 -29 -11q-3 2 -7 3q-12 3 -23 -3t-14 -19q-44 -162 -96 -240q-44 -67 -90 -65q-12 0 -21.5 -8.5
t-10.5 -21.5q0 -22 20 -30q-5 -5 -7 -12l-3 -13q-4 -16 15 -33q6 -8 15 -11q28 -17 65 -23q94 -2 106 -3q8 -2 17 -2q57 -6 111 -30q10 -2 19 1q10 -3 20 -2q56 26 116 31q5 1 8 1q14 1 110 4q38 6 66 23q8 3 13 10q20 17 16 34zM686 221q36 -55 79 -78h-5l-100 18
q-28 6 -55 4l-20 76q0 1 -1 3l20 161q37 -117 82 -184zM315 221q45 68 83 187l23 -159q-3 -4 -4 -8l-20 -76q-28 2 -55 -4l-100 -18h-3h-3q43 23 79 78zM501 680zM399 680q0 42 30 71.5t72 29.5t71.5 -29.5t29.5 -71.5t-29.5 -72t-71.5 -30t-72 30t-30 72z" />
    <glyph glyph-name="uniE652" unicode="&#xe652;" 
d="M466 661zM382 660.5q0 34.5 25 59.5t59.5 25t59.5 -25t25 -59.5t-25 -59.5t-59.5 -25t-59.5 25t-25 59.5zM883 569q-8 10 -21 10.5t-22 -7.5q-5 -4 -8 -10q-5 -2 -18 -7q-62 -21 -94 -42q-84 43 -109 66q-9 8 -22 8v1q-1 -1 -2 -1h-2q-3 -1 -5 -2q-111 -30 -148 -45
q-8 -2 -22 -9q-15 -8 -51 -29q-38 -21 -48 -26q-7 6 -16 17q-11 12 -37 45q-45 58 -63 72l11 12q4 5 2 9l115 109q14 -13 37 -13q34 0 65 28q26 25 32 56.5t-12 51.5q-15 17 -41 17q-35 0 -65 -28q-24 -24 -31 -54t8 -50l-115 -109q-4 4 -9 0l-21 -18q-4 1 -8 1
q-19 0 -31 -17q-7 -9 -5 -21l-1 -1q-14 -11 -7 -19l10 -11q7 -8 19 5v1q7 -3 14 -2q13 -11 48 -56q29 -38 46 -57t32 -27q4 -2 9 -4t11 -2q12 0 37 13q15 8 45 25q41 24 56 31q1 -1 4 -1h1q9 -16 12 -28q5 -18 10 -83.5t7 -71.5q0 -1 2 -2q0 -62 -16 -141q-47 -49 -89 -96
t-64 -76q-22 -27 -28.5 -42t-3.5 -28q2 -11 10.5 -17.5t19.5 -6.5q3 0 7 1q21 6 23 27q13 25 90 110q-5 -13 -3 -25t10.5 -19t19.5 -7h5q11 2 18.5 10.5t7.5 19.5q11 21 73 66q6 4 72 47q13 9 14 25q5 93 -8 174l4 1q-4 93 -11 150q-1 12 -5 27q11 -7 23.5 -14t22.5 -12
t18 -9.5t13 -6.5l5 -2q6 -3 13 -3q11 0 19 6q27 22 92 44q21 7 28 11q24 10 29 28t-8 33zM322 793q5 27 28 48q25 25 54 25q19 0 30 -12q13 -15 8 -40q-5 -27 -28 -48q-25 -25 -54 -25q-19 0 -30 13q-13 14 -8 39zM330 461q2 -2 3 -5q-1 2 -3 5zM588 161q-40 -26 -70 -48
q-11 -8 -19 -15q16 17 17 19q6 6 8 14q11 61 15 87q5 44 5 79q16 3 36 7q9 -62 8 -143zM801 696l-2 50q-1 -2 -1 -5h-1q-2 2 -5 3q-2 -2 -1 -5q-1 -1 -2 -1q-1 2 -4 3q-2 -2 -2 -5q0 -1 -1 0q-2 2 -4 2q-2 -2 -2 -5q-1 -1 -2 0q-1 2 -4 2q-2 -2 -1 -4q-1 -1 -2 -1q-2 2 -4 3
q-2 -2 -2 -5l-1 -1q-2 3 -5 3h-1l31 -40zM788 687v-1q3 -7 10.5 -4t5.5 10l-1 1q0 1 -1 1l-14 -5v-2z" />
    <glyph glyph-name="uniE653" unicode="&#xe653;" 
d="M619 766zM518 766q0 42 29.5 72t71.5 30t72 -30t30 -72t-30 -71.5t-72 -29.5t-71.5 29.5t-29.5 71.5zM804 366q0 22 -6 59q-4 23 -14 77q-1 3 -3 6q-18 38 -32 61q-43 69 -78 78q-7 2 -14 1q-4 2 -31 5.5t-59 12t-48 22.5q-3 1 -6 0q-10 4 -20.5 0.5t-16.5 -13.5
q-13 -10 -66 -20q-45 -9 -59 -9q-5 -1 -8 -2q-98 -38 -130 -44q-12 3 -23 -2q-11 -7 -14.5 -19t3.5 -23q9 -17 31 -17h7q8 1 22 4q20 6 53 17q32 11 69 25q37 4 67 11q33 6 55 15q-41 -125 -95 -206q-1 -3 -1 -5q-8 -8 -8 -20q-1 -22 -29 -78q-24 -47 -42 -62
q-21 -3 -26 -23q-3 -13 3.5 -24t18.5 -14q5 -1 10 -1q15 0 29 11q30 22 63 89q26 52 32 87q40 -20 66 -31q-43 -67 -102 -116q-11 -9 -11 -23q-9 -31 -48 -115q-37 -78 -59 -105q-10 0 -19 -6q-10 -8 -12 -20.5t6 -22.5q11 -16 30 -16q9 0 18 5q21 10 49 57q20 33 44 85
q21 46 36 84q10 24 13 36q71 61 118 141l2 6q10 0 13 8q9 14 14.5 50.5t17 94.5t34.5 114q3 -2 7 -3q14 -7 43 -53q14 -24 26 -50q7 -34 12 -60q9 -57 6 -76q-12 -20 4 -37q9 -10 22 -10q12 0 21 8q17 15 15 56zM562 -12zM479 -12q0 34 24 58t58.5 24t58.5 -24t24 -58
t-24 -58.5t-58.5 -24.5t-58.5 24.5t-24 58.5z" />
    <glyph glyph-name="uniE654" unicode="&#xe654;" 
d="M502 56q10 -10 20 0q200 201 201 202q67 77 67 180q0 115 -81.5 196.5t-196.5 81.5t-196.5 -81.5t-81.5 -196.5q0 -102 67 -180q0 -1 50.5 -51t100.5 -101zM512 565q49 0 84 -35t35 -84.5t-35 -84.5t-84 -35t-84 35t-35 84.5t35 84.5t84 35z" />
    <glyph glyph-name="uniE655" unicode="&#xe655;" 
d="M921 -31h-836q-9 0 -9 9v84q0 9 9 9h836q9 0 9 -9v-84q0 -9 -9 -9zM581 175h-147q-8 0 -8 9v353q0 8 8 8h147q8 0 8 -8v-353q0 -9 -8 -9zM200 504l297 297q10 11 21 0l297 -297q7 -7 3 -16.5t-14 -9.5h-593q-10 0 -14 9.5t3 16.5zM76 -2v244q0 8 9 8h187q9 0 9 -8v-244
q0 -9 -9 -9h-187q-9 0 -9 9zM725 -2v244q0 8 9 8h187q9 0 9 -8v-244q0 -9 -9 -9h-187q-9 0 -9 9z" />
  </font>
</defs>
</svg>
